<?xml version="1.0" standalone="no"?>
<!DOCTYPE svg PUBLIC "-//W3C//DTD SVG 20010904//EN"
 "http://www.w3.org/TR/2001/REC-SVG-20010904/DTD/svg10.dtd">
<svg version="1.0" xmlns="http://www.w3.org/2000/svg"
 width="990.000000pt" height="990.000000pt" viewBox="0 0 990.000000 990.000000"
 preserveAspectRatio="xMidYMid meet">
<metadata>
Created by potrace 1.14, written by Peter Selinger 2001-2017
</metadata>
<g transform="translate(0.000000,990.000000) scale(0.100000,-0.100000)"
fill="#000000" stroke="none">
<path d="M9600 9755 c-19 -13 -40 -28 -46 -33 -5 -5 -21 -15 -34 -22 -13 -7
-29 -17 -34 -22 -32 -26 -106 -78 -111 -78 -3 0 -30 -18 -60 -40 -30 -22 -59
-40 -65 -40 -5 0 -10 -3 -10 -7 0 -5 -18 -19 -40 -33 -22 -13 -40 -28 -40 -32
0 -4 -5 -8 -10 -8 -12 0 -73 -41 -78 -52 -2 -5 -10 -8 -18 -8 -8 0 -14 -4 -14
-10 0 -5 -6 -10 -13 -10 -7 0 -22 -8 -33 -18 -16 -15 -149 -107 -218 -152 -47
-31 -81 -55 -94 -67 -7 -7 -17 -13 -22 -13 -5 0 -15 -6 -22 -12 -26 -25 -106
-78 -117 -78 -6 0 -11 -4 -11 -8 0 -5 -11 -15 -25 -22 -14 -7 -23 -15 -21 -17
2 -2 0 -21 -5 -42 -5 -21 -11 -64 -15 -97 -3 -32 -12 -95 -20 -139 -7 -44 -14
-92 -14 -107 0 -16 -3 -28 -7 -28 -5 0 -8 -19 -9 -43 -1 -41 -8 -101 -19 -162
-13 -73 -17 -102 -20 -130 -2 -16 -6 -46 -9 -65 -3 -19 -8 -57 -12 -85 -3 -27
-8 -59 -10 -70 -3 -11 -7 -38 -10 -60 -7 -56 -12 -94 -19 -135 -3 -19 -8 -48
-10 -65 -2 -16 -4 -32 -5 -35 -1 -3 -2 -8 -2 -12 1 -3 -5 -46 -13 -95 -8 -48
-16 -106 -19 -128 -7 -49 -13 -91 -20 -130 -3 -16 -7 -50 -10 -75 -3 -25 -8
-54 -10 -65 -2 -11 -7 -45 -11 -75 -4 -30 -10 -66 -11 -80 -2 -14 -6 -43 -9
-65 -3 -22 -8 -51 -10 -65 -2 -14 -7 -43 -10 -65 -3 -22 -7 -55 -10 -72 -3
-18 -7 -50 -10 -70 -3 -21 -8 -54 -11 -73 -3 -19 -8 -48 -10 -65 -2 -16 -6
-43 -8 -60 -3 -16 -8 -52 -11 -80 -4 -27 -9 -63 -12 -80 -5 -33 -5 -33 -22
-150 -6 -44 -13 -91 -16 -105 -2 -14 -6 -43 -9 -65 -4 -22 -8 -51 -11 -65 -2
-14 -7 -47 -11 -75 -3 -27 -8 -61 -10 -75 -2 -14 -6 -43 -8 -65 -3 -22 -8 -58
-12 -80 -7 -41 -8 -47 -18 -124 -3 -23 -9 -57 -12 -75 -3 -17 -7 -44 -9 -61
-12 -97 -22 -160 -25 -160 -1 0 -3 -16 -4 -35 -3 -34 -6 -53 -26 -185 -14 -89
-19 -126 -24 -165 -13 -99 -18 -127 -26 -152 -6 -18 -5 -28 1 -28 6 0 7 -5 3
-12 -4 -6 -8 -21 -10 -32 -2 -12 -5 -32 -8 -46 -6 -35 -18 -119 -22 -155 -1
-16 -5 -43 -8 -60 -5 -30 -74 -493 -82 -550 -2 -16 -8 -61 -13 -100 -6 -38
-13 -90 -17 -115 -6 -46 -14 -67 -14 -37 0 9 -4 17 -10 17 -5 0 -10 5 -10 10
0 6 -36 83 -80 172 -44 90 -80 167 -80 173 0 6 -6 17 -12 24 -7 6 -13 15 -13
19 -1 4 -36 79 -79 167 -164 333 -236 485 -236 495 0 5 -4 10 -10 10 -5 0 -9
3 -8 8 1 4 -23 59 -54 122 -31 63 -92 189 -136 280 -44 91 -117 242 -162 335
-193 398 -238 491 -244 513 -4 12 -12 22 -17 22 -5 0 -9 5 -9 12 0 7 -18 48
-39 93 -267 548 -305 628 -303 638 1 4 -3 7 -8 7 -6 0 -10 4 -10 9 0 5 -39 90
-87 188 -48 98 -87 181 -86 185 1 3 -4 12 -12 18 -8 7 -15 18 -15 24 0 6 -27
65 -60 131 -33 65 -60 125 -60 131 0 7 -3 14 -7 16 -7 2 -54 92 -58 108 -1 6
-62 133 -185 385 -48 99 -117 241 -153 315 -36 74 -113 233 -171 354 -58 120
-106 222 -106 227 0 5 -5 9 -11 9 -6 0 -9 6 -6 14 3 8 3 16 -1 18 -8 4 -82
154 -82 167 0 5 -7 14 -15 21 -8 6 -14 15 -13 18 1 4 -26 63 -59 132 -102 209
-228 471 -259 537 -16 35 -33 61 -39 59 -5 -2 -9 -9 -8 -15 2 -6 -2 -11 -7
-11 -6 0 -10 -4 -10 -10 0 -5 -29 -69 -65 -141 -36 -72 -65 -137 -65 -144 0
-7 -5 -15 -11 -17 -5 -2 -12 -10 -14 -18 -8 -38 -18 -60 -26 -60 -5 0 -9 -4
-9 -9 0 -5 -32 -76 -72 -158 -39 -81 -72 -150 -73 -153 0 -3 -39 -81 -85 -175
-46 -93 -85 -172 -85 -175 -13 -36 -31 -70 -37 -70 -4 0 -8 -7 -8 -16 0 -8
-19 -50 -41 -92 -23 -42 -41 -78 -40 -80 1 -1 -44 -95 -100 -210 -120 -246
-150 -310 -148 -318 0 -4 -3 -10 -8 -13 -5 -3 -17 -24 -28 -46 -35 -76 -156
-330 -166 -347 -5 -10 -13 -26 -19 -35 -25 -46 -160 -335 -160 -344 0 -5 -4
-9 -10 -9 -5 0 -10 -5 -10 -11 0 -5 -19 -49 -42 -97 -23 -48 -41 -90 -40 -94
1 -5 -2 -8 -6 -8 -5 0 -15 -18 -22 -40 -7 -22 -17 -40 -22 -40 -4 0 -7 -3 -6
-7 1 -7 -33 -81 -208 -438 -32 -66 -59 -122 -59 -125 -1 -3 -41 -85 -89 -183
-48 -98 -91 -188 -96 -200 -6 -12 -14 -29 -19 -37 -14 -24 -121 -250 -121
-256 0 -3 -9 -19 -21 -35 -11 -16 -18 -29 -16 -29 3 0 -26 -63 -64 -141 -38
-77 -69 -144 -69 -150 0 -5 -5 -9 -10 -9 -6 0 -9 -3 -8 -7 0 -5 -8 -28 -20
-53 -12 -25 -22 -51 -22 -57 0 -7 -3 -13 -8 -13 -4 0 -14 -15 -21 -32 -15 -33
-128 -269 -261 -543 -40 -82 -110 -226 -155 -320 -45 -93 -104 -215 -131 -270
-27 -55 -48 -103 -46 -107 1 -5 -2 -8 -7 -8 -5 0 -12 -12 -16 -27 -3 -15 -15
-39 -26 -54 -10 -15 -19 -30 -19 -34 0 -4 -29 -67 -65 -141 -36 -74 -65 -139
-65 -144 0 -6 -4 -10 -10 -10 -5 0 -10 -5 -10 -12 0 -6 -31 -75 -69 -152 -38
-78 -98 -202 -134 -276 -35 -74 -104 -216 -152 -315 -169 -349 -247 -510 -247
-515 1 -3 -6 -12 -14 -21 -8 -9 -11 -19 -7 -22 3 -4 0 -7 -7 -7 -7 0 -11 -3
-7 -6 3 -4 -5 -26 -18 -49 -13 -24 -21 -46 -18 -49 4 -3 1 -6 -5 -6 -7 0 -12
-4 -12 -9 0 -14 -122 -265 -132 -272 -6 -3 -10 -10 -10 -15 -1 -18 -41 -104
-269 -569 -35 -71 -64 -132 -65 -135 -1 -3 -5 -15 -9 -27 -4 -13 -11 -23 -16
-23 -5 0 -9 -6 -9 -12 0 -7 -13 -40 -29 -73 -16 -33 -49 -103 -74 -155 -94
-199 -228 -476 -237 -492 -6 -10 -10 -23 -10 -30 0 -11 602 -13 3070 -13 1688
0 3070 2 3070 4 0 6 -44 99 -116 243 -34 69 -60 129 -57 132 4 3 1 6 -5 6 -6
0 -14 10 -18 23 -4 12 -65 140 -135 285 -71 145 -129 268 -129 273 0 5 -5 9
-10 9 -6 0 -9 3 -8 8 2 10 -24 66 -103 225 -38 75 -66 137 -62 137 4 0 -2 7
-13 15 -10 8 -15 15 -10 15 5 0 4 6 -2 12 -8 10 -336 13 -1581 12 -863 0
-1568 2 -1567 5 2 4 15 31 29 61 13 30 72 153 131 273 58 119 106 222 106 227
0 6 5 10 12 10 6 0 9 3 5 6 -3 3 16 50 43 103 27 53 82 166 123 251 41 85 107
223 148 305 40 83 74 152 74 155 3 14 71 146 78 151 5 3 7 8 6 10 -3 4 23 59
157 334 37 77 69 142 69 145 1 3 38 79 82 170 75 154 158 324 306 630 33 69
60 128 59 133 -1 4 2 7 8 7 5 0 10 5 10 12 0 6 35 84 79 172 43 89 87 179 97
201 10 22 22 43 27 46 5 3 8 8 6 10 -1 2 23 57 54 121 31 64 57 121 57 127 0
6 5 11 10 11 6 0 9 3 8 8 -1 4 27 66 62 137 35 72 64 132 65 135 1 6 86 180
171 353 34 70 61 127 59 127 -3 0 9 23 25 50 17 28 30 53 30 55 0 7 84 179 90
185 3 3 6 10 7 15 1 6 11 28 22 50 l19 40 77 -160 c42 -88 96 -199 120 -247
24 -47 41 -89 38 -92 -4 -3 -1 -6 5 -6 7 0 11 -3 10 -7 -1 -5 35 -82 79 -173
83 -170 168 -345 280 -580 36 -74 92 -188 124 -254 33 -65 59 -125 59 -132 0
-8 5 -14 10 -14 6 0 10 -6 10 -12 0 -7 31 -75 70 -151 38 -76 69 -140 70 -142
0 -3 28 -62 63 -132 34 -71 62 -130 62 -133 0 -3 7 -16 15 -30 8 -14 15 -27
15 -30 1 -3 38 -81 84 -175 45 -93 82 -171 81 -173 -2 -5 35 -67 45 -74 6 -4
7 -8 3 -8 -3 0 12 -37 35 -82 23 -46 42 -85 42 -88 2 -6 73 -155 142 -293 29
-59 53 -112 53 -118 0 -6 7 -17 15 -25 8 -9 15 -24 15 -35 0 -10 4 -19 9 -19
5 0 13 -10 17 -22 4 -13 43 -97 87 -188 44 -91 81 -167 82 -170 1 -3 34 -72
73 -153 40 -82 72 -153 72 -158 0 -5 5 -9 10 -9 6 0 10 -5 10 -10 0 -12 38
-94 160 -345 45 -93 112 -231 147 -305 36 -74 83 -170 104 -214 22 -43 39 -84
39 -92 0 -8 4 -14 9 -14 8 0 36 -63 29 -66 -2 -1 6 -11 16 -23 11 -12 15 -21
11 -21 -4 0 -1 -8 8 -17 8 -10 16 -21 17 -25 1 -10 97 -213 166 -352 30 -60
54 -115 54 -122 0 -8 3 -14 8 -14 4 0 13 -15 21 -33 8 -17 52 -111 99 -207 47
-96 86 -177 87 -180 10 -33 46 -98 57 -101 7 -3 312 -4 677 -3 723 1 682 -2
680 56 0 12 2 39 4 58 3 19 8 71 12 115 3 44 8 96 10 115 1 19 6 70 10 113 4
43 8 88 10 100 2 12 6 63 10 112 4 50 8 104 11 120 2 17 6 62 9 100 2 39 7 94
10 124 4 30 8 82 10 115 2 34 5 61 5 61 1 0 3 18 5 40 2 22 6 69 9 105 4 36 8
92 11 125 2 32 7 84 10 115 9 94 15 153 21 220 3 36 7 83 9 105 2 22 6 74 10
115 3 41 8 93 10 115 2 22 7 67 10 100 3 33 8 83 10 110 3 28 7 77 10 110 2
33 7 87 10 120 3 33 8 80 10 105 4 51 14 155 20 215 7 73 19 219 19 253 1 17
3 32 6 32 3 0 6 19 6 43 1 23 4 71 7 107 4 36 9 92 11 125 3 33 8 80 11 105 3
25 7 79 10 120 2 41 7 97 11 124 3 27 7 72 9 100 4 52 13 149 20 221 2 22 7
69 10 105 3 36 8 88 11 115 11 113 15 174 17 237 1 38 5 68 8 68 3 0 6 20 6
45 1 25 2 46 3 48 1 2 7 64 15 162 2 22 4 40 5 40 1 0 3 25 5 55 6 88 13 171
19 225 3 28 8 79 10 115 3 36 8 83 10 105 3 22 8 78 11 125 3 47 8 96 10 110
2 14 6 61 10 105 3 44 8 91 10 105 2 14 7 63 10 110 3 47 8 103 10 125 3 22 7
72 11 110 3 39 7 84 9 100 1 17 6 66 9 110 4 44 9 98 11 120 6 54 16 172 19
215 1 19 5 41 9 48 5 7 3 12 -3 12 -6 0 -8 5 -4 12 5 7 9 33 11 58 5 79 12
163 18 220 4 30 8 75 10 100 6 76 15 173 20 220 3 25 7 77 11 115 3 39 7 86 9
105 2 19 6 71 10 115 4 44 9 98 11 120 2 22 7 69 9 105 3 36 7 81 9 100 3 19
7 69 11 110 3 41 8 91 10 110 5 56 16 181 20 230 2 25 6 68 9 95 3 28 8 84 11
125 7 89 11 133 20 220 4 36 9 85 10 110 3 42 10 127 19 225 3 22 7 76 11 120
4 44 9 83 11 87 7 11 -103 60 -251 113 -5 2 -26 -7 -45 -20z"/>
</g>
</svg>
